# xmcd
#
# Track frame offsets: 
#        150
#        4177
#        19358
#        32202
#        47961
#        62948
#        78451
#        96420
#        113211
#        133252
#        157250
#
# Disc length: 2373 seconds
#
# Revision: 0
# Processed by: cddbd v1.5.2PL0 Copyright (c) Steve Scherf et al.
# Submitted via: ExactAudioCopy v0.99pb5
#
DISCID=a009430b
DTITLE=Bavgate - The King Of Oakland
DYEAR=2007
DGENRE=Rap
TTITLE0=Intro F. Lyn
TTITLE1=King Of Oakland F. Harm
TTITLE2=Gunplay F. Miami Tha Most
TTITLE3=Issues F. Fat Bastard
TTITLE4=We Gon Make It F. Trill Real , Chop Da Hookman
TTITLE5=Watch Your Tone F. Dem Hoodstarz, Dubee, Pooh Suace
TTITLE6=Bosses F. P.S.D., J-Diggs, Trill Real, Natae
TTITLE7=Million and One F. Black Mafia
TTITLE8=Our Ghetto F. Fat Bastard
TTITLE9=Da Rules F. Pooh Sauce
TTITLE10=You Will See F. Thizz Nation
EXTD=
EXTT0=
EXTT1=
EXTT2=
EXTT3=
EXTT4=
EXTT5=
EXTT6=
EXTT7=
EXTT8=
EXTT9=
EXTT10=
PLAYORDER=
